<svg preserveAspectRatio="none" width="100%" height="100%" overflow="visible" style="display: block;" viewBox="0 0 22 22" fill="none" xmlns="http://www.w3.org/2000/svg">
<g id="Frame">
<path id="Vector" d="M7.44494 14.5554C7.18956 14.3 6.88637 14.0974 6.5527 13.9592C6.21903 13.821 5.8614 13.7499 5.50023 13.7499C5.13907 13.7499 4.78144 13.821 4.44776 13.9592C4.11409 14.0974 3.81091 14.3 3.55552 14.5554C3.03976 15.0712 2.75 15.7707 2.75 16.5001C2.75 17.2295 3.03976 17.9291 3.55552 18.4448C4.07129 18.9606 4.77083 19.2503 5.50023 19.2503C6.22964 19.2503 6.92917 18.9606 7.44494 18.4448C7.96071 17.9291 8.25046 17.2295 8.25046 16.5001C8.25046 15.7707 7.96071 15.0712 7.44494 14.5554ZM7.44494 14.5554L14.5574 7.44299M14.5574 7.44299C14.8127 7.69837 15.1159 7.90095 15.4496 8.03916C15.7833 8.17737 16.1409 8.24851 16.5021 8.24851C16.8632 8.24851 17.2209 8.17737 17.5545 8.03916C17.8882 7.90095 18.1914 7.69837 18.4468 7.44299C18.7022 7.1876 18.9047 6.88442 19.0429 6.55075C19.1812 6.21707 19.2523 5.85944 19.2523 5.49828C19.2523 5.13711 19.1812 4.77948 19.0429 4.44581C18.9047 4.11214 18.7022 3.80895 18.4468 3.55357C17.931 3.0378 17.2315 2.74805 16.5021 2.74805C15.7727 2.74805 15.0731 3.0378 14.5574 3.55357C14.0416 4.06934 13.7518 4.76887 13.7518 5.49828C13.7518 6.22769 14.0416 6.92722 14.5574 7.44299ZM14.5574 7.44299L14.561 7.43932" stroke="var(--stroke-0, #353638)" stroke-width="1.5" stroke-linecap="round" stroke-linejoin="round"/>
</g>
</svg>
